<svg width="24" height="24" viewBox="0 0 24 24" fill="none" xmlns="http://www.w3.org/2000/svg">
<path d="M3.80444 8.04969C4.48507 7.25189 5.7026 7.42904 6.5467 7.85164C7.03455 8.10614 7.6367 7.91834 7.89345 7.43074C8.15095 6.94174 7.9636 6.33644 7.47505 6.07874L7.47355 6.07794C5.8092 5.20514 3.57317 5.23834 2.28352 6.74989C1.17494 8.04924 1.31229 10.0769 2.25946 11.6202C3.25788 13.247 5.2001 14.5 8.00005 14.5C8.5523 14.5 9 14.0519 9 13.4992C9 12.9464 8.5523 12.4984 8.00005 12.4984C5.8439 12.4984 4.57217 11.5642 3.96361 10.5726C3.3038 9.49754 3.44115 8.47549 3.80444 8.04969Z" fill="#909090"/>
<path d="M20.1956 8.04969C19.515 7.25189 18.2974 7.42904 17.4533 7.85164C16.9655 8.10614 16.3633 7.91834 16.1066 7.43074C15.8491 6.94174 16.0364 6.33644 16.525 6.07874L16.5264 6.07794C18.1908 5.20514 20.4268 5.23834 21.7165 6.74989C22.825 8.04924 22.6877 10.0769 21.7405 11.6202C20.7421 13.247 18.7999 14.5 16 14.5C15.4477 14.5 15 14.0519 15 13.4992C15 12.9464 15.4477 12.4984 16 12.4984C18.1561 12.4984 19.4278 11.5642 20.0364 10.5726C20.6962 9.49754 20.5589 8.47549 20.1956 8.04969Z" fill="#909090"/>
<path d="M13.2792 15H10.7207L10.0883 18.2957C10.0075 18.7168 9.66124 19.0408 9.22719 19.1014L7.44649 19.3499C6.80219 19.4398 6.28594 19.917 6.15829 20.5406L6.01264 21.2525C5.93349 21.6392 6.23619 22 6.63984 22H17.3601C17.7638 22 18.0665 21.6392 17.9873 21.2525L17.8417 20.5406C17.714 19.917 17.1978 19.4398 16.5535 19.3499L14.7728 19.1014C14.3387 19.0408 13.9924 18.7168 13.9116 18.2957L13.2792 15Z" fill="#909090"/>
<path d="M6.42595 13.3324C6.84285 15.7386 8.9816 17.5 11.4862 17.5H12.5139C15.0184 17.5 17.1572 15.7386 17.5741 13.3324L18.4839 8.08185C18.6083 7.364 18.8327 6.666 19.1509 6.00725L19.7594 4.74727C20.3333 3.55923 19.8645 2.42092 18.5258 2.26948C17.2315 2.12306 15.1937 2 12 2C8.80635 2 6.76855 2.12306 5.4742 2.26948C4.13555 2.42092 3.66677 3.55924 4.24059 4.74728L4.84916 6.00725C5.1673 6.666 5.3917 7.36395 5.5161 8.08185L6.42595 13.3324Z" fill="#DBDBDB"/>
<path d="M11.433 5.3464C11.6713 4.88453 12.3286 4.88453 12.567 5.3464L13.3389 6.84255L14.9841 7.16815C15.4705 7.2644 15.6671 7.8568 15.3356 8.22735L14.1665 9.53436L14.3806 11.2782C14.443 11.7865 13.9173 12.16 13.4614 11.9313L12 11.198L10.5385 11.9313C10.0827 12.16 9.557 11.7865 9.6194 11.2782L9.8335 9.53436L8.66435 8.22735C8.33285 7.8568 8.52945 7.2644 9.0159 7.16815L10.661 6.84255L11.433 5.3464Z" fill="#909090"/>
</svg>
