<svg width="22" height="24" viewBox="0 0 22 24" fill="none" xmlns="http://www.w3.org/2000/svg">
<path d="M0 8.96387H22V19.3735C22 21.9287 19.8112 24 17.1111 24H4.88889C2.18883 24 0 21.9287 0 19.3735V8.96387Z" fill="#8CC5D9"/>
<path d="M17.1111 2.60242H4.88889C2.18883 2.60242 0 4.67377 0 7.22892V8.96386H22V7.22892C22 4.67377 19.8112 2.60242 17.1111 2.60242Z" fill="#4FA5C6"/>
<path fill-rule="evenodd" clip-rule="evenodd" d="M6.11112 0C6.61739 0 7.02779 0.388379 7.02779 0.86747V4.33735C7.02779 4.81644 6.61739 5.20482 6.11112 5.20482C5.60486 5.20482 5.19446 4.81644 5.19446 4.33735V0.86747C5.19446 0.388379 5.60486 0 6.11112 0ZM15.8889 0C16.3952 0 16.8056 0.388379 16.8056 0.86747V4.33735C16.8056 4.81644 16.3952 5.20482 15.8889 5.20482C15.3826 5.20482 14.9722 4.81644 14.9722 4.33735V0.86747C14.9722 0.388379 15.3826 0 15.8889 0Z" fill="#8CC5D9"/>
<path d="M16 18.6723C16 18.301 16.2558 18 16.5714 18H17.4286C17.7442 18 18 18.301 18 18.6723V19.5714C18 19.9427 17.7442 20 17.4286 20H16.8286C16.513 20 16 19.9427 16 19.5714V18.6723Z" fill="#4FA5C6"/>
</svg>
