<svg width="22" height="18" viewBox="0 0 22 18" fill="none" xmlns="http://www.w3.org/2000/svg">
<path opacity="0.3" fill-rule="evenodd" clip-rule="evenodd" d="M4.75 0C2.12665 0 0 2.12665 0 4.75V5.97305C0 6.53862 0.394282 6.94793 0.820785 7.09498C1.50802 7.33193 2 7.98448 2 8.75C2 9.51552 1.50802 10.1681 0.820785 10.405C0.394281 10.5521 0 10.9614 0 11.527V12.75C0 15.3734 2.12665 17.5 4.75 17.5H16.75C19.3734 17.5 21.5 15.3734 21.5 12.75V11.527C21.5 10.9614 21.1057 10.5521 20.6792 10.405C19.992 10.1681 19.5 9.51552 19.5 8.75C19.5 7.98448 19.992 7.33193 20.6792 7.09498C21.1057 6.94793 21.5 6.53862 21.5 5.97305V4.75C21.5 2.12665 19.3734 0 16.75 0H4.75Z" fill="#BCBCBC"/>
<path d="M10.351 5.27831C10.5511 5.01342 10.9489 5.01342 11.149 5.27831L12.1394 6.58976C12.1993 6.66897 12.2813 6.72859 12.3752 6.76101L13.9285 7.29772C14.2422 7.40613 14.3652 7.78454 14.1751 8.05666L13.2339 9.40389C13.177 9.48527 13.1457 9.58173 13.1438 9.68098L13.1134 11.3241C13.1073 11.656 12.7854 11.8899 12.4678 11.7932L10.8957 11.3144C10.8007 11.2854 10.6993 11.2854 10.6043 11.3144L9.03219 11.7932C8.71464 11.8899 8.39275 11.656 8.3866 11.3241L8.35616 9.68098C8.35432 9.58173 8.32298 9.48527 8.26613 9.40389L7.32493 8.05666C7.13483 7.78454 7.25778 7.40613 7.57152 7.29772L9.12485 6.76101C9.21868 6.72859 9.30073 6.66897 9.36056 6.58976L10.351 5.27831Z" fill="#909090"/>
</svg>
