<svg width="21" height="19" viewBox="0 0 21 19" fill="none" xmlns="http://www.w3.org/2000/svg">
<path d="M12.5882 2.35294C12.5882 1.05345 13.6417 0 14.9412 0H18.4706C19.7701 0 20.8235 1.05345 20.8235 2.35294V5.5C20.8235 6.79949 19.7701 7 18.4706 7H16C14.7005 7 12.5882 6.79949 12.5882 5.5V2.35294Z" fill="#909090"/>
<path d="M1.99997 12.9412C1.99997 11.6417 3.05342 10.5882 4.35292 10.5882H7.88233C9.18182 10.5882 10.2353 11.6417 10.2353 12.9412V16.4706C10.2353 17.7701 9.18182 18.8235 7.88233 18.8235H4.35292C3.05342 18.8235 1.99997 17.7701 1.99997 16.4706V12.9412Z" fill="#DBDBDB"/>
<path d="M12.5882 12.9412C12.5882 9 12.5882 9 14.9412 9H18.4706C19.7701 9 20.8235 9.28874 20.8235 10.5882V16.4706C20.8235 17.7701 19.7701 18.8235 18.4706 18.8235H14.9412C13.6417 18.8235 12.5882 17.7701 12.5882 16.4706V12.9412Z" fill="#DBDBDB"/>
<path d="M0.823486 2.35294C0.823486 1.05345 1.87693 0 3.17643 0L7.88235 1.81808e-05C9.18185 1.81808e-05 10.2353 0.700506 10.2353 2V5.88239C10.2353 7.18188 9.1818 8.23533 7.88231 8.23533H3.17643C1.87693 8.23533 0.823486 7.18188 0.823486 5.88239V2.35294Z" fill="#909090"/>
</svg>
