<svg width="22" height="20" viewBox="0 0 22 20" fill="none" xmlns="http://www.w3.org/2000/svg">
<ellipse opacity="0.4" cx="11" cy="10" rx="11" ry="10" fill="#DBDBDB"/>
<path fill-rule="evenodd" clip-rule="evenodd" d="M11.0001 5.75C10.2407 5.75 9.6251 6.30964 9.6251 7C9.6251 7.41421 9.25573 7.75 8.8001 7.75C8.34446 7.75 7.9751 7.41421 7.9751 7C7.9751 5.48122 9.32944 4.25 11.0001 4.25C12.6708 4.25 14.0251 5.48122 14.0251 7C14.0251 7.54634 13.849 8.05757 13.5453 8.48663C13.3551 8.75537 13.1327 9.01194 12.9276 9.24363C12.8901 9.28601 12.8533 9.32749 12.817 9.36825C12.6469 9.5597 12.4907 9.73544 12.3464 9.91577C11.9904 10.3605 11.8251 10.6947 11.8251 11V11.5C11.8251 11.9142 11.4557 12.25 11.0001 12.25C10.5445 12.25 10.1751 11.9142 10.1751 11.5V11C10.1751 10.2007 10.6068 9.53977 11.0122 9.03325C11.1835 8.81923 11.3712 8.60814 11.5419 8.41619C11.576 8.37775 11.6095 8.34007 11.6421 8.30329C11.8458 8.07313 12.0192 7.87065 12.1577 7.67495C12.2952 7.48068 12.3751 7.24996 12.3751 7C12.3751 6.30964 11.7595 5.75 11.0001 5.75Z" fill="#BBBBBB"/>
<path fill-rule="evenodd" clip-rule="evenodd" d="M11 13.25C11.4557 13.25 11.825 13.5858 11.825 14V15C11.825 15.4142 11.4557 15.75 11 15.75C10.5444 15.75 10.175 15.4142 10.175 15V14C10.175 13.5858 10.5444 13.25 11 13.25Z" fill="#BBBBBB"/>
</svg>
