<svg width="28" height="28" viewBox="0 0 28 28" fill="none" xmlns="http://www.w3.org/2000/svg">
<rect width="28" height="28" rx="14" fill="#F5F5F5"/>
<path d="M22.3334 15.8333L23.4596 14.7071C23.8501 14.3166 23.8501 13.6834 23.4596 13.2929L22.3334 12.1667" stroke="#909090" stroke-width="1.5" stroke-linecap="round" stroke-linejoin="round"/>
<path d="M23.25 14H15.9167M9.50004 21.3333C7.475 21.3333 5.83337 19.6917 5.83337 17.6667V10.3333C5.83337 8.30828 7.475 6.66666 9.50004 6.66666M9.50004 21.3333C11.5251 21.3333 13.1667 19.6917 13.1667 17.6667V10.3333C13.1667 8.30828 11.5251 6.66666 9.50004 6.66666M9.50004 21.3333H16.8334C18.8584 21.3333 20.5 19.6917 20.5 17.6667M9.50004 6.66666H16.8334C18.8584 6.66666 20.5 8.30828 20.5 10.3333" stroke="#909090" stroke-width="1.2" stroke-linecap="round"/>
</svg>
