<svg width="22" height="22" viewBox="0 0 22 22" fill="none" xmlns="http://www.w3.org/2000/svg">
<path fill-rule="evenodd" clip-rule="evenodd" d="M21.4252 2.75489C21.6363 1.14102 20.3063 -0.18897 18.6924 0.0221043C16.3334 0.330632 12.3259 1.17774 9.74309 3.57324C8.92128 4.33544 8.16196 5.2561 7.48732 6.20288L5.55086 5.92624C5.00557 5.84835 4.45542 6.03173 4.06593 6.42122L0.883952 9.6032C-0.135752 10.6229 0.446317 12.3691 1.8739 12.573L4.84375 12.9973L4.84394 12.996C4.97509 13.2669 5.15247 13.5182 5.37136 13.7371L7.71022 16.0759C7.9291 16.2948 8.18034 16.4722 8.45129 16.6034L8.45002 16.6035L8.87428 19.5734C9.07822 21.001 10.8244 21.583 11.8441 20.5633L15.0261 17.3814C15.4156 16.9919 15.599 16.4417 15.5211 15.8964L15.2444 13.96C16.1912 13.2853 17.1119 12.526 17.8741 11.7042C20.2696 9.12137 21.1167 5.11389 21.4252 2.75489Z" fill="#DBDBDB"/>
<path fill-rule="evenodd" clip-rule="evenodd" d="M4.94975 16.4973L2.12132 19.3257L4.94975 16.4973Z" fill="#DBDBDB"/>
<path fill-rule="evenodd" clip-rule="evenodd" d="M2.82843 14.376L1.41422 15.7902L2.82843 14.376Z" fill="#DBDBDB"/>
<path fill-rule="evenodd" clip-rule="evenodd" d="M7.07107 18.6186L5.65686 20.0328L7.07107 18.6186Z" fill="#DBDBDB"/>
<path d="M4.94975 16.4973L2.12132 19.3257M2.82843 14.376L1.41422 15.7902M7.07107 18.6186L5.65686 20.0328" stroke="#909090" stroke-width="1.5" stroke-linecap="round"/>
<path d="M12.7277 5.89078C11.9466 6.67182 11.9466 7.93815 12.7277 8.7192C13.5087 9.50025 14.7751 9.50025 15.5561 8.7192C16.3372 7.93815 16.3372 6.67182 15.5561 5.89078C14.7751 5.10973 13.5087 5.10973 12.7277 5.89078Z" fill="#909090"/>
</svg>
