<svg width="28" height="28" viewBox="0 0 28 28" fill="none" xmlns="http://www.w3.org/2000/svg">
<rect width="28" height="28" rx="14" fill="#F5F5F5"/>
<path d="M9.25154 17.9454L7.03317 20.1471M18.9569 13.8173C17.392 15.4918 14.8939 16.8444 13.5351 17.5055C12.962 17.7844 12.2838 17.6525 11.8325 17.2045L9.99809 15.3839C9.54673 14.9359 9.41382 14.2629 9.6948 13.6941C10.3609 12.3455 11.7238 9.8661 13.4109 8.31305C15.2916 6.58188 18.2701 5.93796 20.1063 5.69961C20.989 5.58504 21.7055 6.29622 21.5901 7.17227C21.3499 8.99468 20.7011 11.9507 18.9569 13.8173Z" stroke="#909090" stroke-width="1.2" stroke-linecap="round"/>
<path d="M9.67723 18.368C9.91242 18.1346 9.91242 17.7561 9.67723 17.5227C9.44203 17.2892 9.0607 17.2892 8.8255 17.5227L9.67723 18.368ZM6.60714 19.7244C6.37194 19.9578 6.37194 20.3363 6.60714 20.5697C6.84234 20.8031 7.22366 20.8031 7.45886 20.5697L6.60714 19.7244ZM12.9117 20.2571L13.5079 20.1726L13.5079 20.1726L12.9117 20.2571ZM16.9602 17.56L17.5564 17.4755L17.5564 17.4755L16.9602 17.56ZM6.92207 14.3126L7.00724 13.7208L7.00724 13.7208L6.92207 14.3126ZM9.63956 10.2945L9.55439 10.8862L9.55439 10.8862L9.63956 10.2945ZM8.8255 17.5227L6.60714 19.7244L7.45886 20.5697L9.67723 18.368L8.8255 17.5227ZM16.3125 17.7979L13.8168 20.2748L14.6685 21.1201L17.1642 18.6432L16.3125 17.7979ZM13.5079 20.1726L13.1751 17.8608L11.9827 18.0299L12.3155 20.3416L13.5079 20.1726ZM16.1421 16.1034L16.364 17.6446L17.5564 17.4755L17.3346 15.9343L16.1421 16.1034ZM13.8168 20.2748C13.7107 20.3801 13.5291 20.32 13.5079 20.1726L12.3155 20.3416C12.477 21.4643 13.8606 21.922 14.6685 21.1201L13.8168 20.2748ZM17.1642 18.6432C17.4728 18.3369 17.6181 17.9043 17.5564 17.4755L16.364 17.6446C16.3721 17.7009 16.353 17.7577 16.3125 17.7979L17.1642 18.6432ZM8.54819 10.092L6.05253 12.5689L6.90425 13.4142L9.39991 10.9373L8.54819 10.092ZM6.83689 14.9043L9.16618 15.2345L9.33652 14.0511L7.00724 13.7208L6.83689 14.9043ZM11.2776 9.9229L9.72473 9.70273L9.55439 10.8862L11.1072 11.1063L11.2776 9.9229ZM6.05253 12.5689C5.24459 13.3707 5.70578 14.7439 6.83689 14.9043L7.00724 13.7208C6.85873 13.6998 6.79817 13.5195 6.90425 13.4142L6.05253 12.5689ZM9.39991 10.9373C9.44043 10.8971 9.49766 10.8781 9.55439 10.8862L9.72473 9.70273C9.29269 9.64147 8.8568 9.78568 8.54819 10.092L9.39991 10.9373Z" fill="#909090"/>
<path d="M7.58765 16.2941L6.47846 17.3949M10.9152 19.5966L9.80601 20.6975" stroke="#909090" stroke-width="1.2" stroke-linecap="round"/>
<path d="M10.6379 12.166L15.0747 16.5693" stroke="#909090" stroke-width="1.2" stroke-linecap="round"/>
<path d="M15.352 11.8907C14.7394 11.2828 14.7394 10.297 15.352 9.68904C15.9646 9.08106 16.9578 9.08106 17.5704 9.68904C18.1829 10.297 18.1829 11.2828 17.5704 11.8907C16.9578 12.4987 15.9646 12.4987 15.352 11.8907Z" stroke="#909090" stroke-width="1.2"/>
</svg>
