<svg width="28" height="25" viewBox="0 0 28 25" fill="none" xmlns="http://www.w3.org/2000/svg">
<path fill-rule="evenodd" clip-rule="evenodd" d="M13.5029 20.3307C13.6628 20.4267 13.8338 20.4692 14 20.4671C14.1662 20.4692 14.3372 20.4267 14.4971 20.3307L15.9162 19.4793C18.6993 17.8094 22.1031 17.5367 25.1166 18.7421C26.2283 19.1867 27.4375 18.368 27.4375 17.1708V2.59715C27.4375 1.87471 26.9977 1.22506 26.3269 0.956754C22.4455 -0.59579 18.0615 -0.244512 14.4769 1.90626L14 2.19241L13.5231 1.90626C9.93846 -0.244512 5.55446 -0.59579 1.6731 0.956754C1.00234 1.22506 0.5625 1.87471 0.5625 2.59715V17.1708C0.5625 18.368 1.77174 19.1867 2.8834 18.7421C5.8969 17.5367 9.30065 17.8094 12.0838 19.4793L13.5029 20.3307ZM2.4375 2.67068V16.9042C5.93224 15.5941 9.83974 15.9463 13.0484 17.8715L13.0625 17.8799V3.81652L12.5584 3.51406C9.49718 1.67732 5.75792 1.3669 2.4375 2.67068ZM14.9516 17.8715L14.9375 17.8799V3.81652L15.4416 3.51406C18.5028 1.67732 22.2421 1.3669 25.5625 2.67068V16.9042C22.0678 15.5941 18.1603 15.9463 14.9516 17.8715Z" fill=""/>
<path d="M10.594 20.8385C8.06413 19.3628 4.93587 19.3628 2.40605 20.8385L2.27762 20.9134C1.83038 21.1743 1.67932 21.7484 1.94021 22.1956C2.20109 22.6428 2.77514 22.7939 3.22238 22.533L3.35081 22.4581C5.29682 21.3229 7.70318 21.3229 9.64919 22.4581L11.0083 23.2509C12.857 24.3293 15.143 24.3293 16.9917 23.2509L18.3508 22.4581C20.2968 21.3229 22.7032 21.3229 24.6492 22.4581L24.7776 22.533C25.2249 22.7939 25.7989 22.6428 26.0598 22.1956C26.3207 21.7484 26.1696 21.1743 25.7224 20.9134L25.594 20.8385C23.0641 19.3628 19.9359 19.3628 17.406 20.8385L16.047 21.6313C14.7821 22.3692 13.2179 22.3692 11.953 21.6313L10.594 20.8385Z" fill=""/>
</svg>
