<svg width="40" height="40" viewBox="0 0 38 37" fill="none" xmlns="http://www.w3.org/2000/svg">
<path fill-rule="evenodd" clip-rule="evenodd" d="M19 3.46875C12.6603 3.46875 7.52088 8.4729 7.52088 14.6458C7.52088 16.9092 8.21182 19.0154 9.39952 20.7755L5.30497 27.6808C5.07212 28.0735 5.09651 28.5625 5.36735 28.9314C5.63819 29.3003 6.10547 29.481 6.56243 29.3935L10.7011 28.6013L12.0658 32.4872C12.2165 32.9163 12.6108 33.22 13.0743 33.2639C13.5379 33.3079 13.985 33.0839 14.2178 32.6912L18.3025 25.8026C18.5332 25.8161 18.7658 25.8229 19 25.8229C19.2343 25.8229 19.4669 25.8161 19.6976 25.8026L23.7823 32.6912C24.0154 33.0843 24.4631 33.3083 24.9271 33.2638C25.391 33.2193 25.7853 32.9147 25.9351 32.4849L27.293 28.591L31.4351 29.393C31.8924 29.4815 32.3605 29.3014 32.632 28.9324C32.9035 28.5634 32.9282 28.0739 32.6951 27.6808L28.6006 20.7755C29.7883 19.0154 30.4792 16.9092 30.4792 14.6458C30.4792 8.4729 25.3398 3.46875 19 3.46875ZM9.89588 14.6458C9.89588 9.75006 13.972 5.78125 19 5.78125C24.0281 5.78125 28.1042 9.75006 28.1042 14.6458C28.1042 19.5416 24.0281 23.5104 19 23.5104C13.972 23.5104 9.89588 19.5416 9.89588 14.6458ZM15.8077 25.385C13.9821 24.8714 12.3437 23.9285 11.0151 22.6758L8.66832 26.6336L11.2602 26.1375C11.8429 26.026 12.4207 26.3508 12.6129 26.8979L13.4675 29.3316L15.8077 25.385ZM24.5288 29.3252L22.1924 25.385C24.018 24.8714 25.6564 23.9285 26.985 22.6758L29.328 26.6273L26.7349 26.1252C26.1504 26.0121 25.5704 26.3382 25.3788 26.8875L24.5288 29.3252Z" fill=""/>
</svg>
