<svg width="40" height="40" viewBox="0 0 40 37" fill="none" xmlns="http://www.w3.org/2000/svg">
<path d="M4.79756 6.56724L4.79756 6.56724C4.90385 5.68241 5.50118 5.00604 6.45686 4.84445C8.52393 4.49494 12.5466 4.08333 20 4.08333C27.4535 4.08333 31.4762 4.49494 33.5432 4.84445C34.4989 5.00605 35.0962 5.6824 35.2025 6.56721C35.417 8.35291 35.6667 11.4493 35.6667 16.1875C35.6667 20.9257 35.417 24.0221 35.2025 25.8078C35.0962 26.6926 34.4989 27.3689 33.5433 27.5305L33.5432 27.5305C31.4761 27.8801 27.4535 28.2917 20 28.2917C12.5466 28.2917 8.52394 27.8801 6.45689 27.5305L6.45686 27.5305C5.50117 27.3689 4.90385 26.6926 4.79756 25.8078C4.58305 24.0221 4.33337 20.9257 4.33337 16.1875C4.33337 11.4493 4.58305 8.35291 4.79756 6.56724Z" stroke="" stroke-width="2"/>
<path d="M11.1654 17.2982L11.1654 17.2982C11.096 17.3041 11.0524 17.3317 11.0289 17.3563C11.0053 17.3808 11 17.4023 11 17.4189V18.8382C11 18.8548 11.0054 18.8757 11.0279 18.8993C11.0503 18.9228 11.0921 18.9497 11.1598 18.9556L11.1598 18.9556C11.7639 19.008 12.5497 19.0572 13.3269 19.0522L11.1654 17.2982ZM11.1654 17.2982C11.7699 17.2471 12.5555 17.1981 13.3333 17.1981C14.1111 17.1981 14.8967 17.2471 15.5012 17.2982L15.5012 17.2982M11.1654 17.2982L15.5012 17.2982M15.5012 17.2982C15.5707 17.3041 15.6142 17.3317 15.6378 17.3563C15.6613 17.3808 15.6667 17.4023 15.6667 17.4189V18.8244C15.6667 18.8411 15.6613 18.8632 15.6368 18.8886C15.6121 18.9142 15.5669 18.9426 15.4957 18.9484L15.4956 18.9484M15.5012 17.2982L15.4956 18.9484M15.4956 18.9484C14.8905 18.9982 14.1052 19.0472 13.3269 19.0522L15.4956 18.9484Z" stroke="" stroke-width="2"/>
<path d="M22.16 24.8138L22.0949 25.3836C22.0402 25.8624 22.2066 26.3738 22.6322 26.7681L22.16 24.8138ZM22.16 24.8138L21.7009 24.4698M22.16 24.8138L21.7009 24.4698M21.7009 24.4698C21.2556 24.1362 21 23.6515 21 23.1345C21 22.6174 21.2556 22.1328 21.7009 21.7992L22.16 21.4553L22.0949 20.8854C22.0402 20.4065 22.2066 19.8951 22.6323 19.5008C23.0638 19.1011 23.6652 18.9152 24.2639 18.9738L24.7763 19.024L25.1148 18.6362C25.4662 18.2335 26.0215 17.9583 26.6667 17.9583C27.3118 17.9583 27.8671 18.2335 28.2185 18.6362L28.5571 19.024L29.0694 18.9738C29.6681 18.9152 30.2695 19.1011 30.7012 19.5009C31.1267 19.8951 31.2932 20.4066 31.2385 20.8854L31.1734 21.4553L31.6325 21.7992C32.0777 22.1328 32.3333 22.6175 32.3333 23.1345C32.3333 23.6515 32.0777 24.1362 31.6325 24.4697L31.1734 24.8136M21.7009 24.4698L31.1734 24.8136M24.1851 27.4288L24.1882 28.1841C24.1939 29.5442 24.2347 31.1022 24.3413 32.7561L25.6342 31.7231C25.6342 31.723 25.6343 31.723 25.6343 31.723C26.2339 31.2439 27.0995 31.244 27.699 31.7229L27.6992 31.723L28.9921 32.7562C29.0987 31.1022 29.1394 29.5442 29.1451 28.1841L29.1482 27.4288L29.8756 27.2252C30.1835 27.139 30.4667 26.9853 30.7011 26.7682L24.1851 27.4288ZM24.1851 27.4288L23.4578 27.2252M24.1851 27.4288L23.4578 27.2252M23.4578 27.2252C23.1499 27.139 22.8667 26.9853 22.6323 26.7681L23.4578 27.2252ZM31.1734 24.8136L31.2385 25.3836M31.1734 24.8136L31.2385 25.3836M31.2385 25.3836C31.2932 25.8623 31.1267 26.3738 30.7012 26.7681L31.2385 25.3836ZM29.2309 32.947C29.231 32.9471 29.2311 32.9471 29.2312 32.9472L29.2312 32.9472L29.2309 32.947ZM24.367 33.1383L24.367 33.1382L24.367 33.1383Z" stroke="" stroke-width="2"/>
<path d="M28.7667 11.9377L28.7668 11.9377C28.8569 11.9351 28.9212 11.9006 28.9582 11.8651C28.9941 11.8307 29 11.802 29 11.7838V10.5915C29 10.5733 28.9941 10.5445 28.9582 10.5101C28.9212 10.4746 28.8569 10.4402 28.7667 10.4375V11.9377ZM28.7667 11.9377C26.688 11.999 22.4383 12.1147 20 12.1147C17.5617 12.1147 13.312 11.999 11.2333 11.9377L11.2332 11.9377M28.7667 11.9377L11.2332 11.9377M11.2332 11.9377C11.1431 11.9351 11.0788 11.9006 11.0418 11.8651C11.0059 11.8307 11 11.802 11 11.7838V10.5915C11 10.5733 11.0059 10.5445 11.0418 10.5101M11.2332 11.9377L11.0418 10.5101M11.0418 10.5101C11.0788 10.4746 11.1431 10.4402 11.2333 10.4375L11.0418 10.5101ZM11.2334 10.4375C13.3121 10.3762 17.5617 10.2606 20 10.2606C22.4383 10.2606 26.6879 10.3762 28.7666 10.4375H11.2334Z" stroke="" stroke-width="2"/>
<path d="M28.1667 23.125C28.1667 23.7779 27.57 24.4375 26.6667 24.4375C25.7635 24.4375 25.1667 23.7779 25.1667 23.125C25.1667 22.4721 25.7635 21.8125 26.6667 21.8125C27.57 21.8125 28.1667 22.4721 28.1667 23.125Z" stroke="" stroke-width="2"/>
</svg>
