<svg width="32" height="30" viewBox="0 0 29 27" fill="none" xmlns="http://www.w3.org/2000/svg">
<path d="M28 13.5V21C28 23.7614 25.5823 26 22.6 26H6.4C3.41766 26 1 23.7614 1 21V6C1 3.23858 3.41766 1 6.4 1H14.5M19.4766 3.52844C19.4766 3.52844 19.4766 5.31631 21.4075 7.10418C23.3384 8.89205 25.2693 8.89205 25.2693 8.89205M10.6588 18.487L14.7137 17.9506C15.2986 17.8732 15.8406 17.6223 16.2584 17.2354L27.2002 7.10418C28.2666 6.11676 28.2666 4.51585 27.2002 3.52843L25.2693 1.74056C24.2029 0.753147 22.4739 0.753146 21.4075 1.74056L10.4657 11.8718C10.0479 12.2587 9.77692 12.7606 9.69336 13.3021L9.11409 17.0567C8.98536 17.891 9.75772 18.6061 10.6588 18.487Z" stroke="" stroke-width="2" stroke-linecap="round"/>
</svg>
