<svg width="29" height="27" viewBox="0 0 29 27" fill="none" xmlns="http://www.w3.org/2000/svg">
<path d="M9.1 19.125H8.1C8.1 19.4695 8.27731 19.7897 8.56928 19.9725C8.86125 20.1554 9.22676 20.175 9.53667 20.0246L9.1 19.125ZM0 26C0 26.5523 0.447715 27 1 27C1.55228 27 2 26.5523 2 26H0ZM13.4778 17L13.9145 17.8997L13.9507 17.8821L13.9854 17.8616L13.4778 17ZM15.5683 20.0693L16.0101 20.9664L16.0402 20.9516L16.0692 20.9348L15.5683 20.0693ZM10.1318 22.7467L9.68995 21.8496L9.65988 21.8644L9.63088 21.8812L10.1318 22.7467ZM6.3565 21.867L7.20749 21.3418L6.3565 21.867ZM5.90099 19.2248C5.61094 18.7548 4.99481 18.609 4.52482 18.899C4.05483 19.1891 3.90896 19.8052 4.19901 20.2752L5.90099 19.2248ZM16.21 17.5973L17.0492 17.0534L16.21 17.5973ZM10.1 23.5C10.1 22.9477 9.65228 22.5 9.1 22.5C8.54772 22.5 8.1 22.9477 8.1 23.5H10.1ZM8.1 26C8.1 26.5523 8.54772 27 9.1 27C9.65228 27 10.1 26.5523 10.1 26H8.1ZM15.7009 16.0586L15.1345 16.8827L16.7827 18.0155L17.3491 17.1914L15.7009 16.0586ZM22.0741 10.3164C22.3869 9.86125 22.2716 9.23869 21.8164 8.92587C21.3612 8.61306 20.7387 8.72844 20.4259 9.1836L22.0741 10.3164ZM5.4 4.125C5.4 4.67728 5.84772 5.125 6.4 5.125C6.95228 5.125 7.4 4.67728 7.4 4.125H5.4ZM23.95 12.5C23.3977 12.5 22.95 12.9477 22.95 13.5C22.95 14.0523 23.3977 14.5 23.95 14.5V12.5ZM11.8 5C11.2477 5 10.8 5.44772 10.8 6C10.8 6.55228 11.2477 7 11.8 7V5ZM22.6 7C23.1523 7 23.6 6.55228 23.6 6C23.6 5.44772 23.1523 5 22.6 5V7ZM11.8 8.75C11.2477 8.75 10.8 9.19771 10.8 9.75C10.8 10.3023 11.2477 10.75 11.8 10.75V8.75ZM17.2 10.75C17.7523 10.75 18.2 10.3023 18.2 9.75C18.2 9.19771 17.7523 8.75 17.2 8.75V10.75ZM6.75 9.75C6.75 10.5073 6.06275 11.25 5.05 11.25V13.25C7.01959 13.25 8.75 11.7541 8.75 9.75H6.75ZM5.05 11.25C4.03725 11.25 3.35 10.5073 3.35 9.75H1.35C1.35 11.7541 3.08041 13.25 5.05 13.25V11.25ZM3.35 9.75C3.35 8.99265 4.03725 8.25 5.05 8.25V6.25C3.08041 6.25 1.35 7.74593 1.35 9.75H3.35ZM5.05 8.25C6.06275 8.25 6.75 8.99265 6.75 9.75H8.75C8.75 7.74593 7.01959 6.25 5.05 6.25V8.25ZM10.1 19.125V18.5H8.1V19.125H10.1ZM0 18.5V26H2V18.5H0ZM9.53667 20.0246L13.9145 17.8997L13.0411 16.1004L8.66333 18.2254L9.53667 20.0246ZM15.1265 19.1722L9.68995 21.8496L10.5736 23.6438L16.0101 20.9664L15.1265 19.1722ZM7.20749 21.3418L5.90099 19.2248L4.19901 20.2752L5.50551 22.3922L7.20749 21.3418ZM13.9854 17.8616C14.4803 17.57 15.1114 17.7407 15.3708 18.1411L17.0492 17.0534C16.1743 15.7032 14.3353 15.3341 12.9701 16.1385L13.9854 17.8616ZM9.63088 21.8812C8.77066 22.379 7.66665 22.0858 7.20749 21.3418L5.50551 22.3922C6.56746 24.1129 8.89299 24.6189 10.6326 23.6122L9.63088 21.8812ZM2 18.5C2 17.0523 3.29167 15.75 5.05 15.75V13.75C2.33483 13.75 0 15.8056 0 18.5H2ZM15.3708 18.1411C15.5902 18.4796 15.5093 18.9481 15.0674 19.2038L16.0692 20.9348C17.4392 20.142 17.9291 18.4113 17.0492 17.0534L15.3708 18.1411ZM10.1 18.5C10.1 15.8056 7.76517 13.75 5.05 13.75V15.75C6.80833 15.75 8.1 17.0523 8.1 18.5H10.1ZM8.1 23.5V26H10.1V23.5H8.1ZM17.3491 17.1914L22.0741 10.3164L20.4259 9.1836L15.7009 16.0586L17.3491 17.1914ZM7.4 4.125V3.5H5.4V4.125H7.4ZM9.1 2H25.3V0H9.1V2ZM27 3.5V11H29V3.5H27ZM25.3 12.5H23.95V14.5H25.3V12.5ZM27 11C27 11.7573 26.3127 12.5 25.3 12.5V14.5C27.2696 14.5 29 13.0041 29 11H27ZM25.3 2C26.3127 2 27 2.74265 27 3.5H29C29 1.49593 27.2696 0 25.3 0V2ZM7.4 3.5C7.4 2.74265 8.08725 2 9.1 2V0C7.13041 0 5.4 1.49593 5.4 3.5H7.4ZM11.8 7H22.6V5H11.8V7ZM11.8 10.75H17.2V8.75H11.8V10.75Z" fill=""/>
</svg>
