<svg width="29" height="30" viewBox="0 0 29 30" fill="none" xmlns="http://www.w3.org/2000/svg">
<path d="M10.45 18.6097C10.45 18.6097 11.9688 19.9597 14.5 19.9597C17.0313 19.9597 18.55 18.6097 18.55 18.6097M21.25 11.8597C21.25 12.6053 20.6456 13.2097 19.9 13.2097C19.1544 13.2097 18.55 12.6053 18.55 11.8597C18.55 11.1141 19.1544 10.5097 19.9 10.5097C20.6456 10.5097 21.25 11.1141 21.25 11.8597ZM28 14.5597C28 22.0155 21.9558 28.0597 14.5 28.0597C7.04416 28.0597 1 22.0155 1 14.5597C1 7.10385 7.04416 1.05969 14.5 1.05969C21.9558 1.05969 28 7.10385 28 14.5597ZM10.45 11.8597C10.45 12.6053 9.84558 13.2097 9.1 13.2097C8.35442 13.2097 7.75 12.6053 7.75 11.8597C7.75 11.1141 8.35442 10.5097 9.1 10.5097C9.84558 10.5097 10.45 11.1141 10.45 11.8597Z" stroke="" stroke-width="2" stroke-linecap="round" stroke-linejoin="round"/>
</svg>
