<svg width="37" height="34" viewBox="0 0 37 34" fill="none" xmlns="http://www.w3.org/2000/svg">
<path d="M21.5833 14.1667H28.9278C29.4533 14.1667 29.9701 14.2901 30.4291 14.5253C30.8881 14.7604 31.2741 15.0994 31.5504 15.5102C31.8267 15.9209 31.9842 16.3898 32.0079 16.8722C32.0316 17.3546 31.9208 17.8345 31.6859 18.2665L26.29 28.1832C26.0339 28.6542 25.64 29.0503 25.1526 29.327C24.6652 29.6038 24.1034 29.7502 23.5305 29.75H17.3376C17.0863 29.75 16.835 29.7217 16.5899 29.665L10.7917 28.3333M21.5833 14.1667V7.08333C21.5833 6.33189 21.2585 5.61122 20.6802 5.07986C20.102 4.54851 19.3178 4.25 18.5 4.25H18.3535C17.5827 4.25 16.9583 4.82375 16.9583 5.53208C16.9583 6.54358 16.633 7.53242 16.021 8.37392L10.7917 15.5833V28.3333M21.5833 14.1667H18.5M10.7917 28.3333H7.70833C6.89058 28.3333 6.10632 28.0348 5.52809 27.5035C4.94985 26.9721 4.625 26.2514 4.625 25.5V17C4.625 16.2486 4.94985 15.5279 5.52809 14.9965C6.10632 14.4652 6.89058 14.1667 7.70833 14.1667H11.5625" stroke="" stroke-width="2" stroke-linecap="round" stroke-linejoin="round"/>
</svg>
