<svg width="24" height="22" viewBox="0 0 21 18" fill="none" xmlns="http://www.w3.org/2000/svg">
<path d="M16.8 10.2644C17.9089 10.9746 18.9 12.7626 18.9 13.8644C18.9 14.2076 18.6078 14.4858 18.2474 14.4858H17.85M13.65 7.35348C14.3673 6.99779 14.85 6.33298 14.85 5.57155C14.85 4.81011 14.3673 4.1453 13.65 3.78961M2.75252 14.4858H14.2474C14.6078 14.4858 14.9 14.2076 14.9 13.8644C14.9 11.7069 12.7971 9.95794 8.49997 9.95794C4.20283 9.95794 2.09998 11.7069 2.09998 13.8644C2.09998 14.2076 2.39213 14.4858 2.75252 14.4858ZM10.9 5.57155C10.9 6.70768 9.82546 7.62869 8.49997 7.62869C7.17449 7.62869 6.09997 6.70768 6.09997 5.57155C6.09997 4.43542 7.17449 3.5144 8.49997 3.5144C9.82546 3.5144 10.9 4.43542 10.9 5.57155Z" stroke="" stroke-width="2" stroke-linecap="round"/>
</svg>
